#!OML:ASF H:\Not Pregnant\Project 1\Capture day 1\Session 1\non-pregnant.ASF
:FULLY-SPECIFIED
:DEGREES
924
root 0.00998385 15.9866 28.8591 39.1294 -69.4792 -28.2144
lowerback -7.41152 1.27087 10.6757
upperback -8.6412 1.00711 1.6457
thorax -4.82837 -0.181322 -4.18571
lowerneck 25.445 -9.34443 -29.4636
upperneck -10.2761 -21.0016 44.8114
head 2.02727 -14.2104 24.2109
rclavicle -1.59028e-015 -9.74045e-015
rhumerus -42.9119 -19.0019 -56.3194
rradius 25.3012
rwrist 30.8717
rhand -16.8499 -6.19373
rfingers 7.12502
rthumb 9.38019 -35.965
lclavicle -1.59028e-015 -9.74045e-015
lhumerus -47.5641 -5.24607 86.228
lradius 30.9962
lwrist 28.5467
lhand -16.4963 -13.9793
lfingers 7.12502
lthumb 9.72132 15.7764
rfemur -8.38081 18.1858 20.2708
rtibia 11.9173
rfoot -2.62371 40.1992
rtoes 18.9959
lfemur -25.0029 -5.70379 -7.10669
ltibia 33.4139
lfoot -20.6979 -5.8057
ltoes -26.9308
925
root 0.0130376 15.9898 28.8882 40.2176 -69.9524 -29.1696
lowerback -7.38672 1.32787 10.6352
upperback -8.6319 1.08495 1.59677
thorax -4.81885 -0.141387 -4.2125
lowerneck 25.3458 -9.35942 -29.377
upperneck -10.2172 -21.0301 44.9322
head 2.08693 -14.2437 24.2633
rclavicle 1.36664e-014 3.37934e-015
rhumerus -42.795 -19.8405 -56.5255
rradius 24.934
rwrist 31.0947
rhand -17.3404 -6.41587
rfingers 7.12502
rthumb 8.90692 -36.2079
lclavicle 1.36664e-014 3.37934e-015
lhumerus -47.2652 -5.0171 85.9323
lradius 31.1535
lwrist 28.8176
lhand -16.8511 -14.1882
lfingers 7.12502
lthumb 9.37903 15.5831
rfemur -8.58602 18.2183 20.1466
rtibia 11.8848
rfoot -2.35104 40.3217
rtoes 19.048
lfemur -24.9895 -5.41367 -7.19255
ltibia 33.4102
lfoot -20.6734 -5.51022
ltoes -26.8781
926
root 0.0164609 15.9928 28.9167 41.3698 -70.4231 -30.1866
lowerback -7.36553 1.38928 10.6015
upperback -8.62183 1.16779 1.54471
thorax -4.80573 -0.0992199 -4.24614
lowerneck 25.2432 -9.37475 -29.2915
upperneck -10.154 -21.0608 45.052
head 2.14967 -14.2778 24.3143
rclavicle 8.69683e-015 -2.38542e-015
rhumerus -42.6865 -20.7391 -56.7368
rradius 24.5524
rwrist 31.3198
rhand -17.7116 -6.63072
rfingers 7.12502
rthumb 8.54863 -36.4377
lclavicle 8.69683e-015 -2.38542e-015
lhumerus -46.9762 -4.79155 85.653
lradius 31.3289
lwrist 29.1654
lhand -17.2499 -14.4018
lfingers 7.12502
lthumb 8.99419 15.3865
rfemur -8.80821 18.2487 20.0247
rtibia 11.8672
rfoot -2.07708 40.4479
rtoes 19.0695
lfemur -24.9853 -5.1481 -7.2707
ltibia 33.4163
lfoot -20.6464 -5.17736
ltoes -26.8684
927
root 0.0201844 15.9956 28.944 42.5817 -70.8808 -31.2691
lowerback -7.33557 1.44314 10.5647
upperback -8.61317 1.24213 1.50293
thorax -4.80046 -0.0612613 -4.26756
lowerneck 25.1319 -9.389 -29.2139
upperneck -10.0789 -21.0924 45.1591
head 2.21635 -14.3093 24.3552
rclavicle -4.33351e-014 7.55382e-015
rhumerus -42.6018 -21.7533 -56.914
rradius 24.1606
rwrist 31.6599
rhand -17.9591 -6.83106
rfingers 7.12502
rthumb 8.30985 -36.6476
lclavicle -4.33351e-014 7.55382e-015
lhumerus -46.7027 -4.53541 85.379
lradius 31.5193
lwrist 29.5546
lhand -17.6641 -14.6045
lfingers 7.12502
lthumb 8.59445 15.2006
rfemur -9.03879 18.2825 19.9173
rtibia 11.867
rfoot -1.83479 40.5583
rtoes 19.031
lfemur -24.9845 -4.90781 -7.33392
ltibia 33.429
lfoot -20.616 -4.81949
ltoes -26.8977
928
root 0.0244632 15.9983 28.9704 43.8807 -71.3191 -32.4366
lowerback -7.29785 1.48921 10.5293
upperback -8.61124 1.30741 1.47581
thorax -4.8085 -0.0285426 -4.27461
lowerneck 25.0181 -9.39651 -29.1538
upperneck -9.99258 -21.122 45.2568
head 2.28653 -14.3379 24.3944
rclavicle 2.57426e-014 1.94809e-014
rhumerus -42.5339 -22.8184 -57.0886
rradius 23.7673
rwrist 32.0589
rhand -18.087 -7.01051
rfingers 7.12502
rthumb 8.18632 -36.8319
lclavicle 2.57426e-014 1.94809e-014
lhumerus -46.4493 -4.28362 85.1317
lradius 31.7218
lwrist 30.0007
lhand -18.0497 -14.7671
lfingers 7.12502
lthumb 8.22236 15.0529
rfemur -9.28731 18.3098 19.8304
rtibia 11.8844
rfoot -1.6077 40.654
rtoes 18.9655
lfemur -24.9957 -4.67911 -7.37405
ltibia 33.4461
lfoot -20.583 -4.45079
ltoes -26.9525
929
root 0.029145 16.0011 28.9961 45.2502 -71.7409 -33.6713
lowerback -7.2551 1.52667 10.4923
upperback -8.61692 1.36221 1.4619
thorax -4.82952 -0.00169959 -4.26734
lowerneck 24.9028 -9.39416 -29.1152
upperneck -9.89406 -21.1465 45.344
head 2.35917 -14.3616 24.4339
rclavicle 1.77415e-014 1.07344e-014
rhumerus -42.4777 -23.8724 -57.2957
rradius 23.3869
rwrist 32.4928
rhand -18.0659 -7.16745
rfingers 7.12502
rthumb 8.20673 -36.9881
lclavicle 1.77415e-014 1.07344e-014
lhumerus -46.2155 -4.00902 84.897
lradius 31.9303
lwrist 30.4618
lhand -18.429 -14.9096
lfingers 7.12502
lthumb 7.85631 14.9244
rfemur -9.5482 18.3165 19.7572
rtibia 11.9159
rfoot -1.39088 40.7414
rtoes 18.8821
lfemur -25.0161 -4.45402 -7.40298
ltibia 33.4674
lfoot -20.5505 -4.07855
ltoes -27.0331
930
root 0.0340193 16.004 29.0207 46.6964 -72.1405 -34.9824
lowerback -7.20843 1.55916 10.4532
upperback -8.62644 1.41118 1.45629
thorax -4.85798 0.0220182 -4.25038
lowerneck 24.7901 -9.38995 -29.0771
upperneck -9.794 -21.1684 45.4239
head 2.42916 -14.3831 24.4693
rclavicle 9.19379e-015 1.74931e-014
rhumerus -42.4465 -24.9561 -57.5124
rradius 23.0213
rwrist 33.0256
rhand -17.8776 -7.28141
rfingers 7.12502
rthumb 8.38846 -37.0948
lclavicle 9.19379e-015 1.74931e-014
lhumerus -45.9877 -3.73122 84.6661
lradius 32.1391
lwrist 30.9354
lhand -18.772 -15.0171
lfingers 7.12502
lthumb 7.52525 14.829
rfemur -9.81719 18.3172 19.7056
rtibia 11.9596
rfoot -1.19803 40.8034
rtoes 18.7596
lfemur -25.0442 -4.2246 -7.4139
ltibia 33.4903
lfoot -20.5179 -3.71242
ltoes -27.1487
931
root 0.0396504 16.0071 29.0448 48.2257 -72.5249 -36.3699
lowerback -7.16352 1.59455 10.4265
upperback -8.63728 1.46321 1.44768
thorax -4.88651 0.0463848 -4.24335
lowerneck 24.6771 -9.38958 -29.0267
upperneck -9.69825 -21.1895 45.4991
head 2.49472 -14.4034 24.497
rclavicle -1.38155e-014 5.60573e-014
rhumerus -42.4033 -25.9493 -57.8275
rradius 22.6765
rwrist 33.5248
rhand -17.5227 -7.36144
rfingers 7.12502
rthumb 8.731 -37.1609
lclavicle -1.38155e-014 5.60573e-014
lhumerus -45.7597 -3.47726 84.4465
lradius 32.3494
lwrist 31.4278
lhand -19.1003 -15.1118
lfingers 7.12502
lthumb 7.20834 14.7455
rfemur -10.1023 18.3051 19.6655
rtibia 12.014
rfoot -1.00678 40.8487
rtoes 18.6296
lfemur -25.0848 -3.98321 -7.41476
ltibia 33.512
lfoot -20.4802 -3.35799
ltoes -27.2838
932
root 0.0458074 16.0105 29.0681 49.7988 -72.9021 -37.8007
lowerback -7.11849 1.63349 10.3978
upperback -8.64522 1.51997 1.43091
thorax -4.91111 0.0734119 -4.24376
lowerneck 24.569 -9.39314 -28.9647
upperneck -9.61417 -21.2106 45.5762
head 2.55495 -14.4247 24.5235
rclavicle -4.35835e-014 2.94201e-014
rhumerus -42.3108 -26.7494 -58.3113
rradius 22.3492
rwrist 33.8802
rhand -17.0538 -7.42611
rfingers 7.12502
rthumb 9.18344 -37.2061
lclavicle -4.35835e-014 2.94201e-014
lhumerus -45.5274 -3.25733 84.2462
lradius 32.5598
lwrist 31.9438
lhand -19.4202 -15.1967
lfingers 7.12502
lthumb 6.89953 14.6709
rfemur -10.396 18.2831 19.6254
rtibia 12.0862
rfoot -0.83086 40.8725
rtoes 18.4942
lfemur -25.1246 -3.75936 -7.41814
ltibia 33.5268
lfoot -20.4313 -2.98774
ltoes -27.4513
933
root 0.0524407 16.014 29.0909 51.4162 -73.2702 -39.2798
lowerback -7.07163 1.67177 10.3694
upperback -8.64873 1.57599 1.4092
thorax -4.93196 0.100401 -4.24974
lowerneck 24.4588 -9.40091 -28.8841
upperneck -9.53566 -21.2276 45.6472
head 2.60778 -14.4426 24.5396
rclavicle -2.83268e-015 -1.31198e-014
rhumerus -42.1743 -27.4057 -58.9313
rradius 22.0417
rwrist 34.1816
rhand -16.4739 -7.45641
rfingers 7.12502
rthumb 9.74299 -37.211
lclavicle -2.83268e-015 -1.31198e-014
lhumerus -45.2949 -3.06297 84.0669
lradius 32.7674
lwrist 32.4618
lhand -19.7444 -15.285
lfingers 7.12502
lthumb 6.58652 14.5926
rfemur -10.6935 18.2491 19.5884
rtibia 12.1781
rfoot -0.68433 40.8843
rtoes 18.3284
lfemur -25.1568 -3.55491 -7.42304
ltibia 33.5309
lfoot -20.3685 -2.61012
ltoes -27.6079
934
root 0.0595071 16.0177 29.1132 53.0257 -73.647 -40.7541
lowerback -7.02131 1.70355 10.3149
upperback -8.64958 1.62472 1.37692
thorax -4.95268 0.125215 -4.25279
lowerneck 24.3522 -9.40529 -28.7952
upperneck -9.45798 -21.237 45.7155
head 2.65406 -14.4568 24.5547
rclavicle 3.7123e-014 -2.38542e-015
rhumerus -41.9829 -27.8976 -59.7055
rradius 21.7512
rwrist 34.4176
rhand -15.8437 -7.45325
rfingers 7.12502
rthumb 10.351 -37.1785
lclavicle 3.7123e-014 -2.38542e-015
lhumerus -45.0651 -2.87974 83.8946
lradius 32.9663
lwrist 32.9631
lhand -20.043 -15.3851
lfingers 7.12502
lthumb 6.29826 14.5012
rfemur -10.9927 18.204 19.5291
rtibia 12.29
rfoot -0.571897 40.8807
rtoes 18.1264
lfemur -25.1776 -3.36185 -7.45814
ltibia 33.5196
lfoot -20.295 -2.22354
ltoes -27.7973
